Coordinates
version=1
nRows=17
nColumns=38
inDegrees=yes

Units are S.I. units (second, meters, Newtons, ...)
Angles are in degrees.

endheader
time	pelvis_tilt	pelvis_list	pelvis_rotation	pelvis_tx	pelvis_ty	pelvis_tz	hip_flexion_r	hip_adduction_r	hip_rotation_r	knee_angle_r	ankle_angle_r	subtalar_angle_r	mtp_angle_r	hip_flexion_l	hip_adduction_l	hip_rotation_l	knee_angle_l	ankle_angle_l	subtalar_angle_l	mtp_angle_l	lumbar_extension	lumbar_bending	lumbar_rotation	arm_flex_r	arm_add_r	arm_rot_r	elbow_flex_r	pro_sup_r	wrist_flex_r	wrist_dev_r	arm_flex_l	arm_add_l	arm_rot_l	elbow_flex_l	pro_sup_l	wrist_flex_l	wrist_dev_l
      3.05000000	     -0.16125700	      3.95057968	     -3.63854478	      0.56349190	      0.92496048	      0.30345806	     28.80137650	     -2.73898672	     -1.29067030	    -49.10996393	     -1.32633458	    -13.22533108	     18.91374818	      1.25857257	      7.92364495	      3.81887121	    -16.18747335	     10.67819230	     -1.16646600	      5.24486427	     -4.42943822	     -2.86854638	     -4.75022423	     -7.18936591	    -17.02459364	      9.82117195	     22.73622828	     86.51662706	      0.00000000	      0.00000000	     -2.97036568	    -18.47709677	      8.57256544	     31.01860107	     85.94366927	      0.00000000	      0.00000000
      3.06000000	     -0.00200620	      3.87779940	     -3.48971657	      0.57569968	      0.92456154	      0.30447772	     29.07785589	     -2.92836132	     -1.66333115	    -45.76125014	     -1.10317899	    -13.44884433	     18.32981440	     -0.23355223	      7.81020538	      4.08589998	    -15.36672607	     11.10053623	     -1.09500116	      5.17566958	     -4.71629025	     -2.74811401	     -5.05424730	     -7.37514718	    -16.97553551	      9.61638524	     22.36545431	     86.51662706	      0.00000000	      0.00000000	     -2.74285886	    -18.73928483	      8.15338583	     32.13127807	     85.94366927	      0.00000000	      0.00000000
      3.07000000	      0.19044856	      3.84609150	     -3.32875285	      0.58799355	      0.92394513	      0.30554411	     29.21214605	     -3.16579055	     -2.03950069	    -42.25868389	     -0.89261959	    -13.30655522	     17.81820100	     -1.75752295	      7.72910355	      4.39758609	    -14.55176633	     11.49362525	     -1.03378703	      5.10912210	     -5.03223387	     -2.68090109	     -5.34366135	     -7.55095595	    -16.91580327	      9.44609229	     21.99704780	     86.51662706	      0.00000000	      0.00000000	     -2.52113847	    -18.99496287	      7.74679923	     33.21855247	     85.94366927	      0.00000000	      0.00000000
      3.08000000	      0.40959779	      3.84671721	     -3.15053818	      0.60037116	      0.92312161	      0.30666903	     29.21267839	     -3.44462909	     -2.43705769	    -38.64258144	     -0.68265756	    -12.72708231	     17.39338570	     -3.29935696	      7.66945372	      4.74996118	    -13.76512717	     11.85640139	     -0.98415511	      5.05008473	     -5.36814916	     -2.65715312	     -5.62431415	     -7.71812411	    -16.84735338	      9.31051335	     21.63331560	     86.51662706	      0.00000000	      0.00000000	     -2.30573090	    -19.24019194	      7.35426422	     34.26831495	     85.94366927	      0.00000000	      0.00000000
      3.09000000	      0.64709132	      3.86795335	     -2.95353384	      0.61285098	      0.92213048	      0.30785580	     29.09267709	     -3.75219920	     -2.87627796	    -34.96185154	     -0.46470314	    -11.68892770	     17.06010729	     -4.84084920	      7.61592885	      5.13014664	    -13.03269284	     12.19362375	     -0.94071470	      5.00689705	     -5.71263223	     -2.66270040	     -5.89990403	     -7.87710619	    -16.77274734	      9.20905826	     21.27504162	     86.51662706	      0.00000000	      0.00000000	     -2.09738724	    -19.47065815	      6.97716431	     35.26823373	     85.94366927	      0.00000000	      0.00000000
      3.10000000	      0.89379680	      3.89666107	     -2.73925804	      0.62546303	      0.92101012	      0.30910124	     28.87179477	     -4.06950995	     -3.37530102	    -31.27693710	     -0.23181906	    -10.22496476	     16.81314131	     -6.36029014	      7.55182989	      5.51883224	    -12.38156919	     12.51361862	     -0.89270830	      4.99191949	     -6.05374658	     -2.68078973	     -6.17187624	     -8.02692087	    -16.69462511	      9.14072774	     20.92170161	     86.51662706	      0.00000000	      0.00000000	     -1.89708874	    -19.68223340	      6.61688060	     36.20667440	     85.94366927	      0.00000000	      0.00000000
      3.11000000	      1.14079652	      3.91967148	     -2.51077000	      0.63821773	      0.91977442	      0.31040369	     28.57664326	     -4.37328293	     -3.94430641	    -27.66210782	      0.02195280	     -8.41910067	     16.63864753	     -7.83393645	      7.46148166	      5.89366714	    -11.83788080	     12.82487535	     -0.82589845	      5.02214668	     -6.38071071	     -2.69449451	     -6.44011805	     -8.16497528	    -16.61513921	      9.10436193	     20.57196567	     86.51662706	      0.00000000	      0.00000000	     -1.70614681	    -19.87161752	      6.27479328	     37.07370397	     85.94366927	      0.00000000	      0.00000000
      3.12000000	      1.38030466	      3.92497585	     -2.27113200	      0.65109397	      0.91841850	      0.31176927	     28.23919613	     -4.63991500	     -4.58001936	    -24.20570233	      0.30107464	     -6.39599434	     16.51672933	     -9.23816336	      7.33135176	      6.23296936	    -11.42474348	     13.13255165	     -0.72464221	      5.11988713	     -6.68499287	     -2.68914266	     -6.70402685	     -8.28745008	    -16.53554035	      9.09875917	     20.22433694	     86.51662706	      0.00000000	      0.00000000	     -1.52647739	    -20.03678649	      5.95221447	     37.86191924	     85.94366927	      0.00000000	      0.00000000
      3.13000000	      1.60624930	      3.90260378	     -2.02225802	      0.66406404	      0.91694529	      0.31322251	     27.89325839	     -4.85000507	     -5.26273301	    -21.00686585	      0.60730677	     -4.30591996	     16.42467289	    -10.55227863	      7.15082582	      6.51891960	    -11.16058989	     13.43585070	     -0.57385143	      5.31342965	     -6.96054480	     -2.65410054	     -6.96346818	     -8.39023350	    -16.45607267	      9.12270027	     19.87776923	     86.51662706	      0.00000000	      0.00000000	     -1.36104682	    -20.17705740	      5.65029214	     38.56685104	     85.94366927	      0.00000000	      0.00000000
      3.14000000	      1.81452799	      3.84586988	     -1.76424646	      0.67711885	      0.91538837	      0.31480437	     27.56998373	     -4.99159750	     -5.95767544	    -18.16806645	      0.93832204	     -2.30739350	     16.34027368	    -11.76129949	      6.91352968	      6.73963058	    -11.05781947	     13.72686178	     -0.36061022	      5.63752133	     -7.20319871	     -2.58361748	     -7.21926942	     -8.47025082	    -16.37623151	      9.17492159	     19.53212208	     86.51662706	      0.00000000	      0.00000000	     -1.21442509	    -20.29278404	      5.36994720	     39.18678038	     85.94366927	      0.00000000	      0.00000000
      3.15000000	      2.00282424	      3.75324435	     -1.49571768	      0.69026889	      0.91380576	      0.31653969	     27.29334744	     -5.06128190	     -6.62111578	    -15.78403325	      1.28614014	     -0.55007706	     16.24470046	    -12.85761170	      6.61879509	      6.88988106	    -11.12181940	     13.99103906	     -0.07536716	      6.13340121	     -7.40947806	     -2.47699552	     -7.47306806	     -8.52689537	    -16.29530935	      9.25407565	     19.18835411	     86.51662706	      0.00000000	      0.00000000	     -1.09328113	    -20.38485017	      5.11188978	     39.72193448	     85.94366927	      0.00000000	      0.00000000
      3.16000000	      2.16972752	      3.62928422	     -1.21562590	      0.70353136	      0.91224470	      0.31841121	     27.07641082	     -5.06390041	     -7.20973757	    -13.92937743	      1.63492417	      0.84004559	     16.12449207	    -13.84083032	      6.27217799	      6.97054548	    -11.35062782	     14.20908889	      0.28723734	      6.84809329	     -7.57509566	     -2.33852138	     -7.72647875	     -8.56312626	    -16.21305236	      9.35869955	     18.84842529	     86.51662706	      0.00000000	      0.00000000	     -1.00649702	    -20.45410985	      4.87671428	     40.17318748	     85.94366927	      0.00000000	      0.00000000
      3.17000000	      2.31390148	      3.48335255	     -0.92589544	      0.71692415	      0.91071754	      0.32037891	     26.91981563	     -5.01130444	     -7.69048544	    -12.64787438	      1.95783140	      1.77196704	     15.97250581	    -14.71569602	      5.88437716	      6.98689348	    -11.73549086	     14.35966521	      0.72776566	      7.83267556	     -7.69343034	     -2.17711702	     -7.97968209	     -8.58578539	    -16.13020257	      9.48719564	     18.51495359	     86.51662706	      0.00000000	      0.00000000	     -0.96458148	    -20.50087138	      4.66504129	     40.54053431	     85.94366927	      0.00000000	      0.00000000
      3.18000000	      2.43387206	      3.32694723	     -0.63323278	      0.73047693	      0.90921510	      0.32241736	     26.81355566	     -4.91905199	     -8.04789951	    -11.94583608	      2.21354737	      2.19685256	     15.78787216	    -15.48863944	      5.46898124	      6.94608921	    -12.26253587	     14.42198978	      1.24146645	      9.13932038	     -7.75457845	     -2.00507415	     -8.22976579	     -8.60484229	    -16.04874996	      9.63781780	     18.19073241	     86.51662706	      0.00000000	      0.00000000	     -0.97822873	    -20.52451313	      4.47765076	     40.82169146	     85.94366927	      0.00000000	      0.00000000
      3.19000000	      2.52738374	      3.17059488	     -0.34898191	      0.74424387	      0.90774071	      0.32453170	     26.74147062	     -4.80074868	     -8.28659072	    -11.79107858	      2.34461905	      2.11098022	     15.57522715	    -16.16447114	      5.03995883	      6.85442671	    -12.91574460	     14.37742563	      1.81782236	     10.81704213	     -7.74583962	     -1.83517506	     -8.46939232	     -8.63153222	    -15.97184819	      9.80864619	     17.87825436	     86.51662706	      0.00000000	      0.00000000	     -1.05607897	    -20.52325355	      4.31554084	     41.01118176	     85.94366927	      0.00000000	      0.00000000
      3.20000000	      2.58964237	      3.02101448	     -0.08739166	      0.75829134	      0.90630981	      0.32673833	     26.68702789	     -4.66166925	     -8.42782901	    -12.11784888	      2.28075646	      1.55440277	     15.34362535	    -16.74442581	      4.60896330	      6.71506773	    -13.68096872	     14.20926013	      2.44026220	     12.90627723	     -7.65421773	     -1.67610971	     -8.68640616	     -8.67567276	    -15.90347474	      9.99752844	     17.57939915	     86.51662706	      0.00000000	      0.00000000	     -1.20210197	    -20.49401995	      4.17988336	     41.10017789	     85.94366927	      0.00000000	      0.00000000
      3.21000000	      2.61252450	      2.87873186	      0.13636403	      0.77266322	      0.90490433	      0.32903575	     26.63985520	     -4.49474999	     -8.50096852	    -12.83686161	      1.94955160	      0.60530121	     15.10547004	    -17.22582408	      4.18175155	      6.52703696	    -14.55020665	     13.90049382	      3.08622083	     15.43264265	     -7.47059369	     -1.52714661	     -8.86476108	     -8.74277820	    -15.84797415	     10.20197125	     17.29541358	     86.51662706	      0.00000000	      0.00000000	     -1.41340912	    -20.43239015	      4.07190003	     41.07721616	     85.94366927	      0.00000000	      0.00000000
